<svg xmlns="http://www.w3.org/2000/svg" xmlns:xlink="http://www.w3.org/1999/xlink" width="466" zoomAndPan="magnify" viewBox="0 0 349.5 125.999998" height="168" preserveAspectRatio="xMidYMid meet" version="1.0"><defs><g/><clipPath id="ccbdf1a37c"><path d="M 21 0.0898438 L 92 0.0898438 L 92 125.910156 L 21 125.910156 Z M 21 0.0898438 " clip-rule="nonzero"/></clipPath></defs><path fill="#004aad" d="M 75.503906 28.285156 C 75.417969 28.234375 75.332031 28.1875 75.246094 28.140625 C 74.222656 27.570312 73.1875 27.042969 72.144531 26.554688 C 50.054688 16.289062 23.453125 24.675781 11.40625 46.296875 C 3.609375 60.289062 3.738281 76.546875 10.3125 89.90625 C 0.992188 74.191406 0.046875 54.078125 9.582031 36.964844 C 23.84375 11.359375 56.164062 2.167969 81.769531 16.429688 Z M 75.503906 28.285156 " fill-opacity="1" fill-rule="nonzero"/><path fill="#004aad" d="M 102.300781 88.617188 C 88.039062 114.222656 55.71875 123.417969 30.113281 109.152344 L 36.351562 97.28125 L 36.636719 97.441406 C 37.632812 97.996094 38.636719 98.507812 39.652344 98.984375 C 61.761719 109.3125 88.414062 100.933594 100.476562 79.28125 C 108.269531 65.296875 108.148438 49.042969 101.574219 35.6875 C 110.890625 51.402344 111.835938 71.507812 102.300781 88.617188 Z M 102.300781 88.617188 " fill-opacity="1" fill-rule="nonzero"/><g clip-path="url(#ccbdf1a37c)"><path fill="#000000" d="M 87.394531 54.9375 L 34.003906 111.851562 L 21.089844 125.617188 L 29.535156 109.546875 L 50.042969 70.53125 L 23.222656 71.421875 L 77.988281 13.800781 L 91.019531 0.0898438 L 82.535156 16.140625 L 61.570312 55.8125 Z M 87.394531 54.9375 " fill-opacity="1" fill-rule="nonzero"/></g><g fill="#000000" fill-opacity="1"><g transform="translate(113.015598, 73.717177)"><g><path d="M 19.46875 -19.515625 L 23.90625 -16.5625 L 23.90625 -17.328125 L 19.46875 -20.234375 Z M 29.8125 -27.171875 L 34.25 -24.265625 L 34.25 -24.984375 L 29.8125 -27.9375 Z M 29.8125 -28.78125 L 34.25 -25.875 L 34.25 -26.59375 L 29.8125 -29.546875 Z M 34.25 -22.921875 L 34.25 -23.375 L 29.8125 -26.328125 L 29.8125 -25.5625 L 33.84375 -22.921875 Z M 19.46875 -5.015625 L 23.90625 -2.0625 L 23.90625 -2.78125 L 19.46875 -5.734375 Z M 19.46875 -9.84375 L 23.90625 -6.890625 L 23.90625 -7.609375 L 19.46875 -10.5625 Z M 19.46875 -13.078125 L 23.90625 -10.109375 L 23.90625 -10.828125 L 19.46875 -13.78125 Z M 19.46875 -8.234375 L 23.90625 -5.28125 L 23.90625 -6 L 19.46875 -8.953125 Z M 19.46875 -16.296875 L 23.90625 -13.34375 L 23.90625 -14.0625 L 19.46875 -17.015625 Z M 19.46875 -21.125 L 23.90625 -18.171875 L 23.90625 -18.890625 L 19.46875 -21.84375 Z M 19.46875 -14.6875 L 23.90625 -11.734375 L 23.90625 -12.4375 L 19.46875 -15.40625 Z M 19.46875 -24.359375 L 23.90625 -21.390625 L 23.90625 -22.109375 L 19.46875 -25.0625 Z M 19.46875 -22.734375 L 23.90625 -19.78125 L 23.90625 -20.5 L 19.46875 -23.453125 Z M 19.46875 -11.453125 L 23.90625 -8.5 L 23.90625 -9.21875 L 19.46875 -12.171875 Z M 19.46875 -0.171875 L 23.90625 2.734375 L 23.90625 2.015625 L 19.46875 -0.890625 Z M 19.46875 -1.796875 L 23.90625 1.125 L 23.90625 0.40625 L 19.46875 -2.5 Z M 19.46875 -17.90625 L 23.90625 -14.953125 L 23.90625 -15.671875 L 19.46875 -18.625 Z M 19.46875 -3.40625 L 23.90625 -0.453125 L 23.90625 -1.15625 L 19.46875 -4.125 Z M 19.46875 -6.625 L 23.90625 -3.671875 L 23.90625 -4.390625 L 19.46875 -7.34375 Z M 18.484375 0.8125 L 22.515625 3.453125 L 23.59375 3.453125 L 19.46875 0.71875 L 19.46875 0.8125 Z M 27.390625 -25.5625 L 31.421875 -22.921875 L 32.5 -22.921875 L 28.515625 -25.5625 Z M 24.984375 -25.5625 L 28.96875 -22.921875 L 30.078125 -22.921875 L 26.046875 -25.5625 Z M 20.0625 -25.5625 L 24.078125 -22.921875 L 25.15625 -22.921875 L 21.171875 -25.5625 Z M 22.515625 -25.5625 L 26.5 -22.921875 L 27.625 -22.921875 L 23.59375 -25.5625 Z M 5.640625 -25.5625 L 9.625 -22.921875 L 10.515625 -22.921875 L 6.484375 -25.5625 Z M 16.25 0.8125 L 20.234375 3.453125 L 21.265625 3.453125 L 17.234375 0.8125 Z M 34.25 -27.984375 L 29.8125 -30.9375 L 29.8125 -30.265625 L 34.25 -27.359375 Z M 12.265625 -22.921875 L 12.265625 -23.375 L 8.953125 -25.5625 L 7.828125 -25.5625 L 11.859375 -22.921875 Z M 18.265625 3.453125 L 19.203125 3.453125 L 15.21875 0.8125 L 14.28125 0.8125 Z M 10.296875 -25.5625 L 12.265625 -24.265625 L 12.265625 -24.984375 L 11.421875 -25.5625 Z M 7.75 -22.921875 L 8.546875 -22.921875 L 4.5625 -25.5625 L 3.765625 -25.5625 Z M 2.546875 -26.359375 L 13.078125 -26.359375 L 13.078125 0 L 18.671875 0 L 18.671875 -26.359375 L 29.015625 -26.359375 L 29.015625 -31.46875 L 2.546875 -31.46875 Z M 2.546875 -26.359375 "/></g></g></g><g fill="#000000" fill-opacity="1"><g transform="translate(146.809898, 73.717177)"><g><path d="M 33.625 -12.171875 L 29.046875 -15.171875 L 28.78125 -14.640625 L 33.34375 -11.640625 Z M 33 -10.96875 L 28.421875 -13.96875 L 28.109375 -13.46875 L 32.671875 -10.46875 Z M 30.171875 -8.015625 L 25.65625 -10.96875 L 25.0625 -10.609375 L 29.59375 -7.65625 C 29.8125 -7.75 30 -7.875 30.171875 -8.015625 Z M 27.265625 -12.40625 L 31.828125 -9.40625 L 32.234375 -9.890625 L 27.671875 -12.890625 Z M 34.015625 -13.515625 L 29.5 -16.46875 C 29.453125 -16.296875 29.359375 -16.109375 29.328125 -15.890625 L 33.84375 -12.890625 C 33.9375 -13.109375 33.984375 -13.296875 34.015625 -13.515625 Z M 34.421875 -16.46875 L 29.953125 -19.421875 C 29.953125 -19.203125 29.953125 -18.9375 29.90625 -18.71875 L 34.375 -15.75 C 34.421875 -15.984375 34.421875 -16.25 34.421875 -16.46875 Z M 31.296875 -8.859375 L 26.71875 -11.859375 L 26.28125 -11.453125 L 30.796875 -8.453125 Z M 34.296875 -14.953125 L 29.8125 -17.90625 L 29.671875 -17.28125 L 34.203125 -14.28125 C 34.25 -14.5 34.296875 -14.734375 34.296875 -14.953125 Z M 12.890625 -5.78125 L 17.328125 -2.859375 L 17.328125 -3.578125 L 12.890625 -6.484375 Z M 12.890625 -23.5 L 17.328125 -20.59375 L 17.328125 -21.3125 L 12.890625 -24.21875 Z M 12.890625 -7.390625 L 17.328125 -4.484375 L 17.328125 -5.1875 L 12.890625 -8.109375 Z M 12.890625 -21.890625 L 17.328125 -18.984375 L 17.328125 -19.703125 L 12.890625 -22.609375 Z M 12.890625 -0.9375 L 17.328125 1.96875 L 17.328125 1.25 L 12.890625 -1.65625 Z M 12.890625 -2.546875 L 17.328125 0.359375 L 17.328125 -0.359375 L 12.890625 -3.265625 Z M 12.890625 -18.671875 L 17.328125 -15.75 L 17.328125 -16.46875 L 12.890625 -19.390625 Z M 12.890625 -20.28125 L 17.328125 -17.375 L 17.328125 -18.078125 L 12.890625 -21 Z M 12.890625 -4.15625 L 17.328125 -1.25 L 17.328125 -1.96875 L 12.890625 -4.875 Z M 34.328125 -18.125 L 29.953125 -21.046875 C 29.953125 -20.765625 30 -20.546875 30 -20.28125 L 34.421875 -17.375 Z M 12.890625 -25.5625 L 12.890625 -25.109375 L 17.328125 -22.203125 L 17.328125 -22.921875 L 13.34375 -25.5625 Z M 17.328125 3.453125 L 17.328125 2.859375 L 12.890625 -0.046875 L 12.890625 0.625 L 17.140625 3.453125 Z M 34.015625 -19.96875 L 29.765625 -22.734375 L 29.90625 -21.984375 L 34.203125 -19.109375 Z M 10.65625 0.8125 L 14.6875 3.453125 L 15.75 3.453125 L 11.765625 0.8125 Z M 13.921875 -8.328125 L 17.953125 -5.6875 L 19.03125 -5.6875 L 15.046875 -8.328125 Z M 14.6875 -25.5625 L 18.671875 -22.921875 L 19.78125 -22.921875 L 15.75 -25.5625 Z M 30.21875 0.8125 L 34.25 3.453125 L 35.3125 3.453125 L 31.34375 0.8125 Z M 8.234375 0.8125 L 12.21875 3.453125 L 13.34375 3.453125 L 9.3125 0.8125 Z M 27.984375 0.8125 L 31.96875 3.453125 L 32.90625 3.453125 L 28.875 0.8125 Z M 17.28125 -14.90625 L 12.890625 -17.765625 L 12.890625 -17.0625 L 16.25 -14.859375 C 16.609375 -14.859375 16.921875 -14.859375 17.28125 -14.90625 Z M 33.21875 -22.109375 L 29.328125 -24.671875 L 29.59375 -23.8125 L 33.625 -21.125 Z M 21.84375 -22.921875 L 21.578125 -23.328125 L 18.625 -25.296875 C 18.171875 -25.375 17.734375 -25.46875 17.1875 -25.515625 L 21.125 -22.921875 Z M 33.125 0.8125 L 32.671875 0.8125 L 36.53125 3.359375 L 35.453125 1.875 L 32.5 -0.046875 Z M 28.875 -7.25 L 25.203125 -9.671875 L 26.28125 -8.234375 L 29.1875 -6.3125 L 28.609375 -7.125 Z M 31.15625 -1.796875 L 34.0625 0.09375 L 33 -1.296875 L 30.078125 -3.21875 Z M 28.734375 -5.015625 L 31.609375 -3.140625 L 30.53125 -4.515625 L 27.625 -6.453125 Z M 30.03125 -25.65625 L 28.34375 -26.765625 C 28.515625 -26.40625 28.734375 -26.09375 28.875 -25.734375 L 32.359375 -23.40625 C 31.734375 -24.265625 30.984375 -25.03125 30.03125 -25.65625 Z M 16.390625 -8.328125 L 19.46875 -6.265625 L 18.484375 -7.65625 L 17.40625 -8.375 C 17.0625 -8.328125 16.75 -8.328125 16.390625 -8.328125 Z M 12.890625 -16.15625 L 12.890625 -15.4375 L 13.78125 -14.859375 L 14.90625 -14.859375 Z M 30.21875 3.453125 L 30.9375 3.453125 L 26.90625 0.8125 L 26.234375 0.8125 Z M 6.53125 0 L 12.09375 0 L 12.09375 -9.125 L 15.53125 -9.125 C 16.515625 -9.125 17.453125 -9.171875 18.359375 -9.265625 L 25.03125 0 L 31.515625 0 L 23.453125 -10.65625 C 27.390625 -12.484375 29.1875 -15.9375 29.1875 -20.28125 C 29.1875 -26.859375 24.984375 -31.46875 16.609375 -31.46875 L 6.53125 -31.46875 Z M 16.203125 -26.359375 C 21.4375 -26.359375 23.1875 -23.71875 23.1875 -20.28125 C 23.1875 -16.828125 21.390625 -14.0625 16.203125 -14.0625 L 12.09375 -14.0625 L 12.09375 -26.359375 Z M 16.203125 -26.359375 "/></g></g></g><g fill="#000000" fill-opacity="1"><g transform="translate(183.91645, 73.717177)"><g><path d="M 6.53125 0 L 27 0 L 27 -5.109375 L 12.09375 -5.109375 L 12.09375 -12.625 L 25.609375 -12.625 L 25.609375 -17.546875 L 12.09375 -17.546875 L 12.09375 -26.359375 L 27 -26.359375 L 27 -31.46875 L 6.53125 -31.46875 Z M 12.890625 -11.1875 L 17.328125 -8.28125 L 17.328125 -9 L 13.078125 -11.8125 L 12.890625 -11.8125 Z M 12.890625 -9.578125 L 17.328125 -6.671875 L 17.328125 -7.390625 L 12.890625 -10.296875 Z M 27.796875 -1.390625 L 32.234375 1.515625 L 32.234375 0.8125 L 27.796875 -2.109375 Z M 27.796875 -3 L 32.234375 -0.046875 L 32.234375 -0.765625 L 27.796875 -3.71875 Z M 27.796875 -27.171875 L 32.234375 -24.21875 L 32.234375 -24.9375 L 27.796875 -27.890625 Z M 26.40625 -13.5625 L 30.84375 -10.65625 L 30.84375 -11.375 L 26.40625 -14.28125 Z M 12.890625 -22.46875 L 17.328125 -19.5625 L 17.328125 -20.28125 L 12.890625 -23.1875 Z M 12.890625 -24.078125 L 17.328125 -21.171875 L 17.328125 -21.890625 L 12.890625 -24.796875 Z M 27.796875 -28.78125 L 32.234375 -25.828125 L 32.234375 -26.546875 L 27.796875 -29.5 Z M 27.796875 0.21875 L 32.234375 3.140625 L 32.234375 2.421875 L 27.796875 -0.5 Z M 30.84375 -9.171875 L 30.84375 -9.765625 L 26.40625 -12.671875 L 26.40625 -11.953125 L 30.671875 -9.171875 Z M 32.234375 -22.921875 L 32.234375 -23.328125 L 27.796875 -26.28125 L 27.796875 -25.5625 L 31.78125 -22.921875 Z M 17.328125 -18.359375 L 17.328125 -18.671875 L 12.890625 -21.578125 L 12.890625 -20.859375 L 16.703125 -18.359375 Z M 32.234375 -27.984375 L 27.796875 -30.9375 L 27.796875 -30.265625 L 32.234375 -27.3125 Z M 19.296875 -11.8125 L 23.28125 -9.171875 L 24.390625 -9.171875 L 20.40625 -11.8125 Z M 9.09375 0.8125 L 13.109375 3.453125 L 14.234375 3.453125 L 10.203125 0.8125 Z M 17.328125 -22.921875 L 18.21875 -22.921875 L 14.234375 -25.5625 L 13.109375 -25.5625 L 17.328125 -22.78125 Z M 15.578125 -25.5625 L 19.5625 -22.921875 L 20.6875 -22.921875 L 16.65625 -25.5625 Z M 21.359375 0.8125 L 25.34375 3.453125 L 26.453125 3.453125 L 22.421875 0.8125 Z M 18 -25.5625 L 22.03125 -22.921875 L 23.09375 -22.921875 L 19.109375 -25.5625 Z M 14.421875 -11.8125 L 18.40625 -9.171875 L 19.515625 -9.171875 L 15.484375 -11.8125 Z M 18.890625 0.8125 L 22.875 3.453125 L 24 3.453125 L 19.96875 0.8125 Z M 22.875 -25.5625 L 26.90625 -22.921875 L 27.984375 -22.921875 L 24 -25.5625 Z M 23.765625 0.8125 L 27.796875 3.453125 L 28.875 3.453125 L 24.890625 0.8125 Z M 14.015625 0.8125 L 18 3.453125 L 19.109375 3.453125 L 15.09375 0.8125 Z M 26.234375 0.8125 L 30.21875 3.453125 L 31.34375 3.453125 L 27.3125 0.8125 Z M 11.546875 0.8125 L 15.578125 3.453125 L 16.65625 3.453125 L 12.671875 0.8125 Z M 16.421875 0.8125 L 20.453125 3.453125 L 21.53125 3.453125 L 17.546875 0.8125 Z M 20.453125 -25.5625 L 24.4375 -22.921875 L 25.5625 -22.921875 L 21.53125 -25.5625 Z M 21.75 -11.8125 L 25.734375 -9.171875 L 26.859375 -9.171875 L 22.828125 -11.8125 Z M 16.828125 -11.8125 L 20.859375 -9.171875 L 21.9375 -9.171875 L 17.953125 -11.8125 Z M 24.171875 -11.8125 L 28.203125 -9.171875 L 29.28125 -9.171875 L 25.296875 -11.8125 Z M 30.84375 -14.0625 L 26.40625 -17.015625 L 26.40625 -16.34375 L 30.84375 -13.4375 Z M 25.34375 -25.5625 L 29.359375 -22.921875 L 30.4375 -22.921875 L 26.40625 -25.5625 Z M 26.40625 -15 L 30.84375 -12.09375 L 30.84375 -12.71875 L 26.40625 -15.625 Z M 12.890625 -7.96875 L 16.03125 -5.90625 L 17.140625 -5.90625 L 12.890625 -8.6875 Z M 12.890625 -19.25 L 14.28125 -18.359375 L 15.359375 -18.359375 L 12.890625 -19.96875 Z M 12.890625 -7.078125 L 12.890625 -6.359375 L 13.609375 -5.90625 L 14.6875 -5.90625 Z M 11.734375 3.453125 L 11.765625 3.453125 L 7.796875 0.8125 L 7.75 0.8125 Z M 11.734375 3.453125 "/></g></g></g><g fill="#000000" fill-opacity="1"><g transform="translate(218.426913, 73.717177)"><g><path d="M 12.890625 -0.8125 L 17.328125 2.109375 L 17.328125 1.390625 L 12.890625 -1.515625 Z M 12.890625 -2.421875 L 17.328125 0.5 L 17.328125 -0.171875 L 12.890625 -3.140625 Z M 12.890625 -4.03125 L 17.328125 -1.078125 L 17.328125 -1.796875 L 12.890625 -4.75 Z M 12.890625 -5.640625 L 17.328125 -2.6875 L 17.328125 -3.40625 L 12.890625 -6.359375 Z M 12.890625 -7.25 L 17.328125 -4.296875 L 17.328125 -5.015625 L 12.890625 -7.96875 Z M 12.890625 -8.859375 L 17.328125 -5.90625 L 17.328125 -6.625 L 12.890625 -9.578125 Z M 12.890625 -10.46875 L 17.328125 -7.515625 L 17.328125 -8.234375 L 12.890625 -11.1875 Z M 12.890625 -12.09375 L 17.328125 -9.125 L 17.328125 -9.84375 L 12.890625 -12.796875 Z M 12.890625 -13.703125 L 17.328125 -10.75 L 17.328125 -11.453125 L 12.890625 -14.421875 Z M 12.890625 -15.3125 L 17.328125 -12.359375 L 17.328125 -13.078125 L 12.890625 -16.03125 Z M 38.546875 -27.984375 L 37.15625 -28.921875 L 34.109375 -30.890625 L 34.109375 -30.171875 L 38.546875 -27.265625 Z M 34.109375 -22.25 L 38.546875 -19.34375 L 38.546875 -20.0625 L 34.109375 -22.96875 Z M 34.109375 -2.90625 L 38.546875 0 L 38.546875 -0.71875 L 34.109375 -3.625 Z M 34.109375 -4.515625 L 38.546875 -1.609375 L 38.546875 -2.328125 L 34.109375 -5.234375 Z M 34.109375 -6.140625 L 38.546875 -3.21875 L 38.546875 -3.9375 L 34.109375 -6.84375 Z M 34.109375 -25.46875 L 38.546875 -22.5625 L 38.546875 -23.28125 L 34.109375 -26.1875 Z M 34.109375 -7.75 L 38.546875 -4.828125 L 38.546875 -5.546875 L 34.109375 -8.453125 Z M 34.109375 -10.96875 L 38.546875 -8.0625 L 38.546875 -8.78125 L 34.109375 -11.6875 Z M 34.109375 -23.859375 L 38.546875 -20.953125 L 38.546875 -21.671875 L 34.109375 -24.578125 Z M 34.109375 -28.6875 L 38.546875 -25.78125 L 38.546875 -26.5 L 34.109375 -29.40625 Z M 34.109375 -9.359375 L 38.546875 -6.453125 L 38.546875 -7.15625 L 34.109375 -10.078125 Z M 34.109375 -20.640625 L 38.546875 -17.734375 L 38.546875 -18.4375 L 34.109375 -21.359375 Z M 34.109375 -19.03125 L 38.546875 -16.109375 L 38.546875 -16.828125 L 34.109375 -19.734375 Z M 34.109375 0.265625 L 38.546875 3.171875 L 38.546875 2.5 L 34.109375 -0.40625 Z M 34.109375 -15.796875 L 38.546875 -12.890625 L 38.546875 -13.609375 L 34.109375 -16.515625 Z M 34.109375 -17.40625 L 38.546875 -14.5 L 38.546875 -15.21875 L 34.109375 -18.125 Z M 34.109375 -27.078125 L 38.546875 -24.171875 L 38.546875 -24.890625 L 34.109375 -27.796875 Z M 34.109375 -1.296875 L 38.546875 1.5625 L 38.546875 0.890625 L 34.109375 -2.015625 Z M 34.109375 -12.578125 L 38.546875 -9.671875 L 38.546875 -10.390625 L 34.109375 -13.296875 Z M 34.109375 -14.1875 L 38.546875 -11.28125 L 38.546875 -12 L 34.109375 -14.90625 Z M 17.328125 3.453125 L 17.328125 3 L 12.890625 0.09375 L 12.890625 0.8125 L 16.875 3.453125 Z M 10.4375 0.8125 L 14.453125 3.453125 L 15.53125 3.453125 L 11.546875 0.8125 Z M 8.015625 0.8125 L 12 3.453125 L 13.109375 3.453125 L 9.09375 0.8125 Z M 37.015625 3.671875 L 37.875 3.671875 L 33.84375 1.03125 L 33.03125 1.03125 Z M 12.890625 -16.921875 L 14.734375 -15.71875 L 12.890625 -17.546875 Z M 6.53125 0 L 12.09375 0 L 12.09375 -19.515625 L 31.828125 0.21875 L 33.3125 0.21875 L 33.3125 -31.46875 L 27.75 -31.46875 L 27.75 -11.375 L 8.28125 -31.65625 L 6.53125 -31.65625 Z M 6.53125 0 "/></g></g></g><g fill="#000000" fill-opacity="1"><g transform="translate(260.501839, 73.717177)"><g><path d="M 35.546875 -11.6875 L 40.0625 -8.6875 L 40.203125 -9.359375 L 35.671875 -12.3125 Z M 39.890625 -7.921875 L 35.3125 -10.921875 C 35.28125 -10.75 35.1875 -10.5625 35.140625 -10.34375 L 39.703125 -7.34375 Z M 38.28125 -4.15625 L 33.65625 -7.203125 L 33.34375 -6.71875 L 37.921875 -3.671875 Z M 39.4375 -6.578125 L 34.875 -9.625 L 34.65625 -9.046875 L 39.21875 -6.046875 C 39.296875 -6.21875 39.390625 -6.40625 39.4375 -6.578125 Z M 34.015625 -7.828125 L 38.625 -4.828125 L 38.90625 -5.328125 L 34.296875 -8.375 Z M 37.515625 -3.046875 L 32.90625 -6.09375 L 32.546875 -5.59375 L 37.15625 -2.59375 Z M 29.140625 2.6875 L 24.703125 -0.21875 C 24.484375 -0.140625 24.21875 -0.046875 24 0 L 28.34375 2.90625 C 28.609375 2.8125 28.875 2.734375 29.140625 2.6875 Z M 32.140625 1.4375 L 27.671875 -1.484375 L 27.03125 -1.15625 L 31.515625 1.75 C 31.734375 1.65625 31.96875 1.5625 32.140625 1.4375 Z M 12.9375 -25.5625 L 12.9375 -24.984375 L 17.375 -22.0625 L 17.375 -22.78125 L 13.15625 -25.5625 Z M 33.4375 0.71875 L 28.921875 -2.28125 C 28.734375 -2.15625 28.5625 -2.015625 28.375 -1.921875 L 32.90625 1.03125 Z M 40.421875 -10.828125 L 35.90625 -13.78125 C 35.90625 -13.5625 35.859375 -13.34375 35.8125 -13.109375 L 40.328125 -10.15625 Z M 35.671875 -1.03125 L 31.109375 -4.03125 L 30.671875 -3.625 L 35.234375 -0.625 Z M 12.9375 -18.53125 L 17.375 -15.625 L 17.375 -16.34375 L 12.9375 -19.25 Z M 12.9375 -21.75 L 17.375 -18.84375 L 17.375 -19.5625 L 12.9375 -22.46875 Z M 12.9375 -20.140625 L 17.375 -17.234375 L 17.375 -17.953125 L 12.9375 -20.859375 Z M 12.9375 -13.703125 L 17.375 -10.78125 L 17.375 -11.5 L 12.9375 -14.421875 Z M 12.9375 -23.375 L 17.375 -20.453125 L 17.375 -21.171875 L 12.9375 -24.078125 Z M 12.9375 -10.46875 L 17.375 -7.5625 L 17.375 -8.28125 L 12.9375 -11.1875 Z M 12.9375 -15.3125 L 17.375 -12.40625 L 17.375 -13.109375 L 12.9375 -16.03125 Z M 12.9375 -12.09375 L 17.375 -9.171875 L 17.375 -9.890625 L 12.9375 -12.796875 Z M 12.9375 -16.921875 L 17.375 -14.015625 L 17.375 -14.734375 L 12.9375 -17.640625 Z M 12.9375 -8.859375 L 17.375 -5.953125 L 17.375 -6.671875 L 12.9375 -9.578125 Z M 36.625 -2.015625 L 32.046875 -5.015625 L 31.65625 -4.609375 L 36.21875 -1.5625 Z M 34.609375 -0.09375 L 30.03125 -3.140625 L 29.546875 -2.734375 L 34.109375 0.21875 Z M 40.46875 -12.171875 L 40.46875 -12.40625 L 35.984375 -15.3125 L 35.984375 -14.640625 L 40.421875 -11.6875 C 40.421875 -11.859375 40.46875 -12 40.46875 -12.171875 Z M 40.328125 -14.09375 L 35.984375 -16.96875 C 36.03125 -16.703125 36.03125 -16.46875 36.03125 -16.203125 L 40.421875 -13.34375 Z M 40.015625 -15.890625 L 35.765625 -18.71875 L 35.90625 -17.90625 L 40.203125 -15.046875 C 40.15625 -15.359375 40.109375 -15.625 40.015625 -15.890625 Z M 30.703125 2.109375 L 26.234375 -0.8125 L 25.609375 -0.53125 L 30.03125 2.375 Z M 27.3125 3.09375 L 23.015625 0.265625 L 22.203125 0.453125 L 26.453125 3.21875 Z M 25.296875 3.359375 L 21.125 0.625 C 20.8125 0.671875 20.5 0.71875 20.1875 0.71875 L 24.265625 3.40625 C 24.625 3.40625 24.984375 3.40625 25.296875 3.359375 Z M 12.9375 0.8125 L 16.96875 3.453125 L 18.078125 3.453125 L 14.0625 0.8125 Z M 39.390625 -17.90625 L 35.3125 -20.59375 L 35.59375 -19.734375 L 39.703125 -17.015625 C 39.625 -17.328125 39.53125 -17.640625 39.390625 -17.90625 Z M 17.859375 0.8125 L 21.84375 3.453125 L 22.96875 3.453125 L 18.9375 0.765625 C 18.75 0.765625 18.578125 0.8125 18.40625 0.8125 Z M 16.96875 -25.5625 L 20.953125 -22.921875 L 22.0625 -22.921875 L 18.046875 -25.5625 Z M 14.5 -25.5625 L 18.53125 -22.921875 L 19.609375 -22.921875 L 15.625 -25.5625 Z M 10.515625 0.8125 L 14.5 3.453125 L 15.625 3.453125 L 11.59375 0.8125 Z M 15.40625 0.8125 L 19.421875 3.453125 L 20.5 3.453125 L 16.515625 0.8125 Z M 8.0625 0.8125 L 12.09375 3.453125 L 13.15625 3.453125 L 9.171875 0.8125 Z M 38.1875 -20.328125 L 34.515625 -22.734375 C 34.6875 -22.421875 34.78125 -22.109375 34.921875 -21.75 L 38.859375 -19.15625 Z M 23.8125 -22.921875 C 24.046875 -22.921875 24.265625 -22.921875 24.53125 -22.875 L 20.90625 -25.296875 C 20.40625 -25.375 19.96875 -25.46875 19.46875 -25.515625 L 23.40625 -22.921875 Z M 34.421875 -24.390625 L 33.171875 -25.25 L 33 -25.375 C 33.265625 -24.984375 33.578125 -24.53125 33.796875 -24.125 L 36.96875 -22.03125 C 36.265625 -22.921875 35.359375 -23.71875 34.421875 -24.390625 Z M 15 -5.90625 L 16.078125 -5.90625 L 12.9375 -7.96875 L 12.9375 -7.25 Z M 12.9375 -5.90625 L 13.65625 -5.90625 L 12.9375 -6.359375 Z M 6.53125 0 L 18.40625 0 C 28.015625 0 35.234375 -6.765625 35.234375 -15.75 C 35.234375 -24.890625 28.15625 -31.46875 18.40625 -31.46875 L 6.53125 -31.46875 Z M 18.4375 -26.359375 C 24.75 -26.359375 29.28125 -21.84375 29.28125 -15.671875 C 29.28125 -9.53125 24.53125 -5.109375 18.4375 -5.109375 L 12.125 -5.109375 L 12.125 -26.359375 Z M 18.4375 -26.359375 "/></g></g></g><g fill="#000000" fill-opacity="1"><g transform="translate(302.487251, 73.717177)"><g><path d="M 23.09375 -16.78125 L 27.703125 -13.78125 L 28.015625 -14.328125 L 23.453125 -17.328125 Z M 25.203125 -20.234375 L 29.8125 -17.234375 L 30.125 -17.765625 L 25.515625 -20.765625 Z M 20.375 -12.171875 L 24.9375 -9.171875 L 25.25 -9.71875 L 20.640625 -12.71875 L 20.375 -12.265625 Z M 30.796875 -29.5 L 35.40625 -26.453125 L 35.71875 -26.953125 L 31.109375 -30 Z M 30.078125 -28.34375 L 34.6875 -25.296875 L 35 -25.78125 L 30.390625 -28.828125 Z M 29.40625 -27.171875 L 34.015625 -24.125 L 34.328125 -24.671875 L 29.71875 -27.703125 Z M 28.6875 -26.015625 L 33.3125 -22.96875 L 33.625 -23.5 L 29.015625 -26.546875 Z M 21.046875 -13.34375 L 25.609375 -10.34375 L 25.921875 -10.828125 L 21.359375 -13.875 Z M 22.421875 -15.671875 L 27 -12.625 L 27.3125 -13.15625 L 22.734375 -16.15625 Z M 23.8125 -17.953125 L 28.421875 -14.953125 L 28.734375 -15.4375 L 24.125 -18.484375 Z M 24.53125 -19.109375 L 29.09375 -16.078125 L 29.40625 -16.609375 L 24.84375 -19.609375 Z M 26.59375 -22.5625 L 31.203125 -19.5625 L 31.515625 -20.0625 L 26.90625 -23.09375 Z M 27.3125 -23.71875 L 31.875 -20.6875 L 32.1875 -21.21875 L 27.625 -24.21875 Z M 21.71875 -14.5 L 26.328125 -11.5 L 26.640625 -12 L 22.03125 -15.046875 Z M 25.921875 -21.390625 L 30.484375 -18.40625 L 30.796875 -18.890625 L 26.234375 -21.9375 Z M 27.984375 -24.890625 L 32.59375 -21.84375 L 32.90625 -22.34375 L 28.296875 -25.375 Z M 20.375 -7.34375 L 24.796875 -4.4375 L 24.796875 -5.140625 L 20.375 -8.0625 Z M 20.375 -10.5625 L 24.796875 -7.65625 L 24.796875 -8.375 L 20.375 -11.28125 Z M 20.375 -4.125 L 24.796875 -1.203125 L 24.796875 -1.921875 L 20.375 -4.828125 Z M 20.375 -5.734375 L 24.796875 -2.8125 L 24.796875 -3.53125 L 20.375 -6.453125 Z M 20.375 -8.953125 L 24.796875 -6.046875 L 24.796875 -6.765625 L 20.375 -9.671875 Z M 20.375 -0.890625 L 24.796875 2.015625 L 24.796875 1.296875 L 20.375 -1.609375 Z M 20.375 -2.5 L 24.796875 0.40625 L 24.796875 -0.3125 L 20.375 -3.21875 Z M 24.796875 3.453125 L 24.796875 2.90625 L 20.375 0 L 20.375 0.671875 L 24.53125 3.453125 Z M 36.34375 -27.984375 L 31.734375 -31.015625 L 31.421875 -30.53125 L 36.03125 -27.484375 Z M 15.625 0.8125 L 19.65625 3.453125 L 20.71875 3.453125 L 16.75 0.8125 Z M 18.078125 0.8125 L 22.0625 3.453125 L 23.1875 3.453125 L 19.15625 0.8125 Z M 13.703125 -24.625 L 17.234375 -22.296875 L 16.515625 -23.5 L 13.03125 -25.78125 Z M 12.21875 -27.21875 L 15.71875 -24.9375 L 15.046875 -26.09375 L 11.546875 -28.375 Z M 15.21875 -22.03125 L 17.546875 -20.453125 L 17.859375 -21.046875 L 14.546875 -23.1875 Z M 10.390625 -30.4375 L 10.75 -29.8125 L 14.234375 -27.484375 L 13.921875 -28.0625 Z M 16.703125 -19.421875 L 16.875 -19.296875 L 17.1875 -19.828125 L 16.03125 -20.59375 Z M 24.84375 -31.46875 L 16.828125 -17.546875 L 8.8125 -31.46875 L 2.421875 -31.46875 L 13.96875 -12.484375 L 13.96875 0 L 19.5625 0 L 19.5625 -12.4375 L 31.109375 -31.46875 Z M 24.84375 -31.46875 "/></g></g></g><g fill="#000000" fill-opacity="1"><g transform="translate(111.810475, 107.889647)"><g><path d="M 8.28125 -1.171875 L 8.28125 0 L 1.421875 0 L 1.421875 -9.453125 L 8.09375 -9.453125 L 8.09375 -8.28125 L 2.765625 -8.28125 L 2.765625 -5.375 L 7.5 -5.375 L 7.5 -4.21875 L 2.765625 -4.21875 L 2.765625 -1.171875 Z M 8.28125 -1.171875 "/></g></g></g><g fill="#000000" fill-opacity="1"><g transform="translate(120.7034, 107.889647)"><g><path d="M 1.421875 -9.453125 L 2.765625 -9.453125 L 2.765625 -1.171875 L 7.890625 -1.171875 L 7.890625 0 L 1.421875 0 Z M 1.421875 -9.453125 "/></g></g></g><g fill="#000000" fill-opacity="1"><g transform="translate(128.570736, 107.889647)"><g><path d="M 8.28125 -1.171875 L 8.28125 0 L 1.421875 0 L 1.421875 -9.453125 L 8.09375 -9.453125 L 8.09375 -8.28125 L 2.765625 -8.28125 L 2.765625 -5.375 L 7.5 -5.375 L 7.5 -4.21875 L 2.765625 -4.21875 L 2.765625 -1.171875 Z M 8.28125 -1.171875 "/></g></g></g><g fill="#000000" fill-opacity="1"><g transform="translate(137.46366, 107.889647)"><g><path d="M 5.640625 0.109375 C 4.691406 0.109375 3.835938 -0.0976562 3.078125 -0.515625 C 2.316406 -0.929688 1.71875 -1.503906 1.28125 -2.234375 C 0.851562 -2.972656 0.640625 -3.800781 0.640625 -4.71875 C 0.640625 -5.644531 0.851562 -6.472656 1.28125 -7.203125 C 1.71875 -7.929688 2.316406 -8.503906 3.078125 -8.921875 C 3.847656 -9.347656 4.707031 -9.5625 5.65625 -9.5625 C 6.394531 -9.5625 7.066406 -9.4375 7.671875 -9.1875 C 8.285156 -8.9375 8.8125 -8.570312 9.25 -8.09375 L 8.375 -7.234375 C 7.65625 -7.984375 6.765625 -8.359375 5.703125 -8.359375 C 5.003906 -8.359375 4.367188 -8.195312 3.796875 -7.875 C 3.234375 -7.5625 2.789062 -7.128906 2.46875 -6.578125 C 2.15625 -6.023438 2 -5.40625 2 -4.71875 C 2 -4.039062 2.15625 -3.421875 2.46875 -2.859375 C 2.789062 -2.304688 3.234375 -1.875 3.796875 -1.5625 C 4.367188 -1.25 5.003906 -1.09375 5.703125 -1.09375 C 6.765625 -1.09375 7.65625 -1.472656 8.375 -2.234375 L 9.25 -1.375 C 8.8125 -0.882812 8.285156 -0.515625 7.671875 -0.265625 C 7.054688 -0.015625 6.378906 0.109375 5.640625 0.109375 Z M 5.640625 0.109375 "/></g></g></g><g fill="#000000" fill-opacity="1"><g transform="translate(147.071804, 107.889647)"><g><path d="M 3.296875 -8.28125 L 0.046875 -8.28125 L 0.046875 -9.453125 L 7.875 -9.453125 L 7.875 -8.28125 L 4.625 -8.28125 L 4.625 0 L 3.296875 0 Z M 3.296875 -8.28125 "/></g></g></g><g fill="#000000" fill-opacity="1"><g transform="translate(154.844679, 107.889647)"><g><path d="M 7.734375 0 L 5.703125 -2.90625 C 5.441406 -2.882812 5.242188 -2.875 5.109375 -2.875 L 2.765625 -2.875 L 2.765625 0 L 1.421875 0 L 1.421875 -9.453125 L 5.109375 -9.453125 C 6.328125 -9.453125 7.285156 -9.15625 7.984375 -8.5625 C 8.691406 -7.976562 9.046875 -7.175781 9.046875 -6.15625 C 9.046875 -5.425781 8.863281 -4.804688 8.5 -4.296875 C 8.144531 -3.785156 7.632812 -3.410156 6.96875 -3.171875 L 9.203125 0 Z M 5.0625 -4.015625 C 5.914062 -4.015625 6.566406 -4.195312 7.015625 -4.5625 C 7.460938 -4.9375 7.6875 -5.46875 7.6875 -6.15625 C 7.6875 -6.84375 7.460938 -7.367188 7.015625 -7.734375 C 6.566406 -8.097656 5.914062 -8.28125 5.0625 -8.28125 L 2.765625 -8.28125 L 2.765625 -4.015625 Z M 5.0625 -4.015625 "/></g></g></g><g fill="#000000" fill-opacity="1"><g transform="translate(164.506797, 107.889647)"><g><path d="M 1.421875 -9.453125 L 2.765625 -9.453125 L 2.765625 0 L 1.421875 0 Z M 1.421875 -9.453125 "/></g></g></g><g fill="#000000" fill-opacity="1"><g transform="translate(168.54167, 107.889647)"><g><path d="M 5.640625 0.109375 C 4.691406 0.109375 3.835938 -0.0976562 3.078125 -0.515625 C 2.316406 -0.929688 1.71875 -1.503906 1.28125 -2.234375 C 0.851562 -2.972656 0.640625 -3.800781 0.640625 -4.71875 C 0.640625 -5.644531 0.851562 -6.472656 1.28125 -7.203125 C 1.71875 -7.929688 2.316406 -8.503906 3.078125 -8.921875 C 3.847656 -9.347656 4.707031 -9.5625 5.65625 -9.5625 C 6.394531 -9.5625 7.066406 -9.4375 7.671875 -9.1875 C 8.285156 -8.9375 8.8125 -8.570312 9.25 -8.09375 L 8.375 -7.234375 C 7.65625 -7.984375 6.765625 -8.359375 5.703125 -8.359375 C 5.003906 -8.359375 4.367188 -8.195312 3.796875 -7.875 C 3.234375 -7.5625 2.789062 -7.128906 2.46875 -6.578125 C 2.15625 -6.023438 2 -5.40625 2 -4.71875 C 2 -4.039062 2.15625 -3.421875 2.46875 -2.859375 C 2.789062 -2.304688 3.234375 -1.875 3.796875 -1.5625 C 4.367188 -1.25 5.003906 -1.09375 5.703125 -1.09375 C 6.765625 -1.09375 7.65625 -1.472656 8.375 -2.234375 L 9.25 -1.375 C 8.8125 -0.882812 8.285156 -0.515625 7.671875 -0.265625 C 7.054688 -0.015625 6.378906 0.109375 5.640625 0.109375 Z M 5.640625 0.109375 "/></g></g></g><g fill="#000000" fill-opacity="1"><g transform="translate(178.149814, 107.889647)"><g><path d="M 7.4375 -2.359375 L 2.421875 -2.359375 L 1.375 0 L -0.015625 0 L 4.265625 -9.453125 L 5.609375 -9.453125 L 9.890625 0 L 8.484375 0 Z M 6.96875 -3.4375 L 4.921875 -8.078125 L 2.890625 -3.4375 Z M 6.96875 -3.4375 "/></g></g></g><g fill="#000000" fill-opacity="1"><g transform="translate(187.879406, 107.889647)"><g><path d="M 1.421875 -9.453125 L 2.765625 -9.453125 L 2.765625 -1.171875 L 7.890625 -1.171875 L 7.890625 0 L 1.421875 0 Z M 1.421875 -9.453125 "/></g></g></g><g fill="#000000" fill-opacity="1"><g transform="translate(195.746743, 107.889647)"><g/></g></g><g fill="#000000" fill-opacity="1"><g transform="translate(199.22835, 107.889647)"><g><path d="M 8.328125 0.15625 L 7.078125 -1.109375 C 6.234375 -0.296875 5.179688 0.109375 3.921875 0.109375 C 3.285156 0.109375 2.710938 0.00390625 2.203125 -0.203125 C 1.703125 -0.410156 1.3125 -0.703125 1.03125 -1.078125 C 0.75 -1.453125 0.609375 -1.875 0.609375 -2.34375 C 0.609375 -2.925781 0.785156 -3.4375 1.140625 -3.875 C 1.492188 -4.320312 2.082031 -4.78125 2.90625 -5.25 C 2.488281 -5.664062 2.191406 -6.039062 2.015625 -6.375 C 1.847656 -6.707031 1.765625 -7.050781 1.765625 -7.40625 C 1.765625 -8.050781 1.992188 -8.566406 2.453125 -8.953125 C 2.921875 -9.335938 3.539062 -9.53125 4.3125 -9.53125 C 5.039062 -9.53125 5.613281 -9.351562 6.03125 -9 C 6.457031 -8.65625 6.671875 -8.175781 6.671875 -7.5625 C 6.671875 -7.082031 6.515625 -6.648438 6.203125 -6.265625 C 5.890625 -5.890625 5.375 -5.5 4.65625 -5.09375 L 7 -2.765625 C 7.257812 -3.273438 7.453125 -3.847656 7.578125 -4.484375 L 8.609375 -4.140625 C 8.453125 -3.316406 8.179688 -2.597656 7.796875 -1.984375 L 9.0625 -0.71875 Z M 4.3125 -8.59375 C 3.894531 -8.59375 3.566406 -8.484375 3.328125 -8.265625 C 3.085938 -8.054688 2.96875 -7.78125 2.96875 -7.4375 C 2.96875 -7.195312 3.03125 -6.960938 3.15625 -6.734375 C 3.289062 -6.515625 3.546875 -6.207031 3.921875 -5.8125 C 4.546875 -6.164062 4.976562 -6.46875 5.21875 -6.71875 C 5.457031 -6.96875 5.578125 -7.242188 5.578125 -7.546875 C 5.578125 -7.859375 5.460938 -8.109375 5.234375 -8.296875 C 5.015625 -8.492188 4.707031 -8.59375 4.3125 -8.59375 Z M 4 -0.96875 C 4.9375 -0.96875 5.703125 -1.265625 6.296875 -1.859375 L 3.625 -4.53125 C 2.96875 -4.175781 2.507812 -3.84375 2.25 -3.53125 C 2 -3.21875 1.875 -2.867188 1.875 -2.484375 C 1.875 -2.035156 2.066406 -1.671875 2.453125 -1.390625 C 2.847656 -1.109375 3.363281 -0.96875 4 -0.96875 Z M 4 -0.96875 "/></g></g></g><g fill="#000000" fill-opacity="1"><g transform="translate(208.337199, 107.889647)"><g/></g></g><g fill="#000000" fill-opacity="1"><g transform="translate(211.818807, 107.889647)"><g><path d="M 7.4375 -2.359375 L 2.421875 -2.359375 L 1.375 0 L -0.015625 0 L 4.265625 -9.453125 L 5.609375 -9.453125 L 9.890625 0 L 8.484375 0 Z M 6.96875 -3.4375 L 4.921875 -8.078125 L 2.890625 -3.4375 Z M 6.96875 -3.4375 "/></g></g></g><g fill="#000000" fill-opacity="1"><g transform="translate(221.548393, 107.889647)"><g><path d="M 1.421875 -9.453125 L 2.765625 -9.453125 L 2.765625 0 L 1.421875 0 Z M 1.421875 -9.453125 "/></g></g></g><g fill="#000000" fill-opacity="1"><g transform="translate(225.583263, 107.889647)"><g><path d="M 7.734375 0 L 5.703125 -2.90625 C 5.441406 -2.882812 5.242188 -2.875 5.109375 -2.875 L 2.765625 -2.875 L 2.765625 0 L 1.421875 0 L 1.421875 -9.453125 L 5.109375 -9.453125 C 6.328125 -9.453125 7.285156 -9.15625 7.984375 -8.5625 C 8.691406 -7.976562 9.046875 -7.175781 9.046875 -6.15625 C 9.046875 -5.425781 8.863281 -4.804688 8.5 -4.296875 C 8.144531 -3.785156 7.632812 -3.410156 6.96875 -3.171875 L 9.203125 0 Z M 5.0625 -4.015625 C 5.914062 -4.015625 6.566406 -4.195312 7.015625 -4.5625 C 7.460938 -4.9375 7.6875 -5.46875 7.6875 -6.15625 C 7.6875 -6.84375 7.460938 -7.367188 7.015625 -7.734375 C 6.566406 -8.097656 5.914062 -8.28125 5.0625 -8.28125 L 2.765625 -8.28125 L 2.765625 -4.015625 Z M 5.0625 -4.015625 "/></g></g></g><g fill="#000000" fill-opacity="1"><g transform="translate(235.245374, 107.889647)"><g><path d="M 5.640625 0.109375 C 4.691406 0.109375 3.835938 -0.0976562 3.078125 -0.515625 C 2.316406 -0.929688 1.71875 -1.503906 1.28125 -2.234375 C 0.851562 -2.972656 0.640625 -3.800781 0.640625 -4.71875 C 0.640625 -5.644531 0.851562 -6.472656 1.28125 -7.203125 C 1.71875 -7.929688 2.316406 -8.503906 3.078125 -8.921875 C 3.847656 -9.347656 4.707031 -9.5625 5.65625 -9.5625 C 6.394531 -9.5625 7.066406 -9.4375 7.671875 -9.1875 C 8.285156 -8.9375 8.8125 -8.570312 9.25 -8.09375 L 8.375 -7.234375 C 7.65625 -7.984375 6.765625 -8.359375 5.703125 -8.359375 C 5.003906 -8.359375 4.367188 -8.195312 3.796875 -7.875 C 3.234375 -7.5625 2.789062 -7.128906 2.46875 -6.578125 C 2.15625 -6.023438 2 -5.40625 2 -4.71875 C 2 -4.039062 2.15625 -3.421875 2.46875 -2.859375 C 2.789062 -2.304688 3.234375 -1.875 3.796875 -1.5625 C 4.367188 -1.25 5.003906 -1.09375 5.703125 -1.09375 C 6.765625 -1.09375 7.65625 -1.472656 8.375 -2.234375 L 9.25 -1.375 C 8.8125 -0.882812 8.285156 -0.515625 7.671875 -0.265625 C 7.054688 -0.015625 6.378906 0.109375 5.640625 0.109375 Z M 5.640625 0.109375 "/></g></g></g><g fill="#000000" fill-opacity="1"><g transform="translate(244.853511, 107.889647)"><g><path d="M 5.6875 0.109375 C 4.726562 0.109375 3.863281 -0.0976562 3.09375 -0.515625 C 2.332031 -0.929688 1.734375 -1.507812 1.296875 -2.25 C 0.859375 -2.988281 0.640625 -3.8125 0.640625 -4.71875 C 0.640625 -5.632812 0.859375 -6.457031 1.296875 -7.1875 C 1.734375 -7.925781 2.332031 -8.503906 3.09375 -8.921875 C 3.863281 -9.347656 4.726562 -9.5625 5.6875 -9.5625 C 6.625 -9.5625 7.472656 -9.347656 8.234375 -8.921875 C 9.003906 -8.503906 9.601562 -7.929688 10.03125 -7.203125 C 10.46875 -6.472656 10.6875 -5.644531 10.6875 -4.71875 C 10.6875 -3.800781 10.46875 -2.972656 10.03125 -2.234375 C 9.601562 -1.503906 9.003906 -0.929688 8.234375 -0.515625 C 7.472656 -0.0976562 6.625 0.109375 5.6875 0.109375 Z M 5.6875 -1.09375 C 6.375 -1.09375 6.992188 -1.25 7.546875 -1.5625 C 8.109375 -1.875 8.546875 -2.304688 8.859375 -2.859375 C 9.179688 -3.421875 9.34375 -4.039062 9.34375 -4.71875 C 9.34375 -5.40625 9.179688 -6.023438 8.859375 -6.578125 C 8.546875 -7.128906 8.109375 -7.5625 7.546875 -7.875 C 6.992188 -8.195312 6.375 -8.359375 5.6875 -8.359375 C 4.988281 -8.359375 4.359375 -8.195312 3.796875 -7.875 C 3.234375 -7.5625 2.789062 -7.128906 2.46875 -6.578125 C 2.15625 -6.023438 2 -5.40625 2 -4.71875 C 2 -4.039062 2.15625 -3.421875 2.46875 -2.859375 C 2.789062 -2.304688 3.234375 -1.875 3.796875 -1.5625 C 4.359375 -1.25 4.988281 -1.09375 5.6875 -1.09375 Z M 5.6875 -1.09375 "/></g></g></g><g fill="#000000" fill-opacity="1"><g transform="translate(256.04052, 107.889647)"><g><path d="M 9.546875 -9.453125 L 9.546875 0 L 8.4375 0 L 2.765625 -7.046875 L 2.765625 0 L 1.421875 0 L 1.421875 -9.453125 L 2.53125 -9.453125 L 8.1875 -2.40625 L 8.1875 -9.453125 Z M 9.546875 -9.453125 "/></g></g></g><g fill="#000000" fill-opacity="1"><g transform="translate(266.849669, 107.889647)"><g><path d="M 1.421875 -9.453125 L 5.40625 -9.453125 C 6.40625 -9.453125 7.289062 -9.253906 8.0625 -8.859375 C 8.832031 -8.460938 9.429688 -7.90625 9.859375 -7.1875 C 10.285156 -6.46875 10.5 -5.644531 10.5 -4.71875 C 10.5 -3.789062 10.285156 -2.96875 9.859375 -2.25 C 9.429688 -1.539062 8.832031 -0.988281 8.0625 -0.59375 C 7.289062 -0.195312 6.40625 0 5.40625 0 L 1.421875 0 Z M 5.3125 -1.171875 C 6.082031 -1.171875 6.753906 -1.316406 7.328125 -1.609375 C 7.910156 -1.910156 8.359375 -2.328125 8.671875 -2.859375 C 8.992188 -3.398438 9.15625 -4.019531 9.15625 -4.71875 C 9.15625 -5.425781 8.992188 -6.046875 8.671875 -6.578125 C 8.359375 -7.117188 7.910156 -7.535156 7.328125 -7.828125 C 6.753906 -8.128906 6.082031 -8.28125 5.3125 -8.28125 L 2.765625 -8.28125 L 2.765625 -1.171875 Z M 5.3125 -1.171875 "/></g></g></g><g fill="#000000" fill-opacity="1"><g transform="translate(277.847755, 107.889647)"><g><path d="M 1.421875 -9.453125 L 2.765625 -9.453125 L 2.765625 0 L 1.421875 0 Z M 1.421875 -9.453125 "/></g></g></g><g fill="#000000" fill-opacity="1"><g transform="translate(281.882625, 107.889647)"><g><path d="M 3.296875 -8.28125 L 0.046875 -8.28125 L 0.046875 -9.453125 L 7.875 -9.453125 L 7.875 -8.28125 L 4.625 -8.28125 L 4.625 0 L 3.296875 0 Z M 3.296875 -8.28125 "/></g></g></g><g fill="#000000" fill-opacity="1"><g transform="translate(289.655493, 107.889647)"><g><path d="M 1.421875 -9.453125 L 2.765625 -9.453125 L 2.765625 0 L 1.421875 0 Z M 1.421875 -9.453125 "/></g></g></g><g fill="#000000" fill-opacity="1"><g transform="translate(293.690364, 107.889647)"><g><path d="M 5.6875 0.109375 C 4.726562 0.109375 3.863281 -0.0976562 3.09375 -0.515625 C 2.332031 -0.929688 1.734375 -1.507812 1.296875 -2.25 C 0.859375 -2.988281 0.640625 -3.8125 0.640625 -4.71875 C 0.640625 -5.632812 0.859375 -6.457031 1.296875 -7.1875 C 1.734375 -7.925781 2.332031 -8.503906 3.09375 -8.921875 C 3.863281 -9.347656 4.726562 -9.5625 5.6875 -9.5625 C 6.625 -9.5625 7.472656 -9.347656 8.234375 -8.921875 C 9.003906 -8.503906 9.601562 -7.929688 10.03125 -7.203125 C 10.46875 -6.472656 10.6875 -5.644531 10.6875 -4.71875 C 10.6875 -3.800781 10.46875 -2.972656 10.03125 -2.234375 C 9.601562 -1.503906 9.003906 -0.929688 8.234375 -0.515625 C 7.472656 -0.0976562 6.625 0.109375 5.6875 0.109375 Z M 5.6875 -1.09375 C 6.375 -1.09375 6.992188 -1.25 7.546875 -1.5625 C 8.109375 -1.875 8.546875 -2.304688 8.859375 -2.859375 C 9.179688 -3.421875 9.34375 -4.039062 9.34375 -4.71875 C 9.34375 -5.40625 9.179688 -6.023438 8.859375 -6.578125 C 8.546875 -7.128906 8.109375 -7.5625 7.546875 -7.875 C 6.992188 -8.195312 6.375 -8.359375 5.6875 -8.359375 C 4.988281 -8.359375 4.359375 -8.195312 3.796875 -7.875 C 3.234375 -7.5625 2.789062 -7.128906 2.46875 -6.578125 C 2.15625 -6.023438 2 -5.40625 2 -4.71875 C 2 -4.039062 2.15625 -3.421875 2.46875 -2.859375 C 2.789062 -2.304688 3.234375 -1.875 3.796875 -1.5625 C 4.359375 -1.25 4.988281 -1.09375 5.6875 -1.09375 Z M 5.6875 -1.09375 "/></g></g></g><g fill="#000000" fill-opacity="1"><g transform="translate(304.877372, 107.889647)"><g><path d="M 9.546875 -9.453125 L 9.546875 0 L 8.4375 0 L 2.765625 -7.046875 L 2.765625 0 L 1.421875 0 L 1.421875 -9.453125 L 2.53125 -9.453125 L 8.1875 -2.40625 L 8.1875 -9.453125 Z M 9.546875 -9.453125 "/></g></g></g><g fill="#000000" fill-opacity="1"><g transform="translate(315.686521, 107.889647)"><g><path d="M 1.421875 -9.453125 L 2.765625 -9.453125 L 2.765625 0 L 1.421875 0 Z M 1.421875 -9.453125 "/></g></g></g><g fill="#000000" fill-opacity="1"><g transform="translate(319.721392, 107.889647)"><g><path d="M 9.546875 -9.453125 L 9.546875 0 L 8.4375 0 L 2.765625 -7.046875 L 2.765625 0 L 1.421875 0 L 1.421875 -9.453125 L 2.53125 -9.453125 L 8.1875 -2.40625 L 8.1875 -9.453125 Z M 9.546875 -9.453125 "/></g></g></g><g fill="#000000" fill-opacity="1"><g transform="translate(330.530541, 107.889647)"><g><path d="M 7.96875 -4.78125 L 9.265625 -4.78125 L 9.265625 -1.09375 C 8.796875 -0.707031 8.25 -0.410156 7.625 -0.203125 C 7.007812 0.00390625 6.363281 0.109375 5.6875 0.109375 C 4.726562 0.109375 3.863281 -0.0976562 3.09375 -0.515625 C 2.332031 -0.929688 1.734375 -1.503906 1.296875 -2.234375 C 0.859375 -2.972656 0.640625 -3.800781 0.640625 -4.71875 C 0.640625 -5.644531 0.859375 -6.472656 1.296875 -7.203125 C 1.734375 -7.941406 2.335938 -8.519531 3.109375 -8.9375 C 3.878906 -9.351562 4.742188 -9.5625 5.703125 -9.5625 C 6.460938 -9.5625 7.148438 -9.4375 7.765625 -9.1875 C 8.378906 -8.9375 8.90625 -8.570312 9.34375 -8.09375 L 8.5 -7.265625 C 7.75 -7.992188 6.835938 -8.359375 5.765625 -8.359375 C 5.046875 -8.359375 4.398438 -8.203125 3.828125 -7.890625 C 3.253906 -7.578125 2.804688 -7.144531 2.484375 -6.59375 C 2.160156 -6.039062 2 -5.414062 2 -4.71875 C 2 -4.039062 2.160156 -3.421875 2.484375 -2.859375 C 2.804688 -2.304688 3.253906 -1.875 3.828125 -1.5625 C 4.398438 -1.25 5.039062 -1.09375 5.75 -1.09375 C 6.59375 -1.09375 7.332031 -1.296875 7.96875 -1.703125 Z M 7.96875 -4.78125 "/></g></g></g></svg>