<svg xmlns="http://www.w3.org/2000/svg" xmlns:xlink="http://www.w3.org/1999/xlink" width="150" zoomAndPan="magnify" viewBox="0 0 112.5 125.999998" height="168" preserveAspectRatio="xMidYMid meet" version="1.0"><defs><g/><clipPath id="8b9bf53e57"><path d="M 21 0.277344 L 91 0.277344 L 91 125.71875 L 21 125.71875 Z M 21 0.277344 " clip-rule="nonzero"/></clipPath></defs><path fill="#004aad" d="M 75.277344 28.390625 C 75.191406 28.339844 75.105469 28.292969 75.019531 28.242188 C 74 27.675781 72.96875 27.148438 71.925781 26.664062 C 49.902344 16.429688 23.382812 24.792969 11.371094 46.347656 C 3.601562 60.296875 3.726562 76.507812 10.28125 89.824219 C 0.988281 74.15625 0.046875 54.101562 9.550781 37.042969 C 23.773438 11.515625 55.996094 2.347656 81.523438 16.570312 Z M 75.277344 28.390625 " fill-opacity="1" fill-rule="nonzero"/><path fill="#004aad" d="M 101.996094 88.542969 C 87.773438 114.070312 55.550781 123.234375 30.023438 109.011719 L 36.246094 97.179688 L 36.527344 97.339844 C 37.519531 97.890625 38.519531 98.402344 39.535156 98.875 C 61.574219 109.175781 88.148438 100.820312 100.175781 79.234375 C 107.945312 65.289062 107.824219 49.085938 101.269531 35.769531 C 110.558594 51.4375 111.5 71.484375 101.996094 88.542969 Z M 101.996094 88.542969 " fill-opacity="1" fill-rule="nonzero"/><g clip-path="url(#8b9bf53e57)"><path fill="#000000" d="M 87.132812 54.960938 L 33.902344 111.703125 L 21.027344 125.429688 L 29.445312 109.40625 L 49.894531 70.507812 L 23.15625 71.398438 L 77.753906 13.949219 L 90.746094 0.28125 L 82.289062 16.28125 L 61.386719 55.832031 Z M 87.132812 54.960938 " fill-opacity="1" fill-rule="nonzero"/></g><g fill="#000000" fill-opacity="1"><g transform="translate(55.57901, 23.647582)"><g><path d="M 0.28125 -0.015625 L 0.375 0.0625 C 0.375 0.046875 0.375 0.046875 0.390625 0.046875 Z M 0.28125 -0.03125 L 0.390625 0.03125 C 0.390625 0.03125 0.390625 0.015625 0.390625 0.015625 L 0.28125 -0.046875 Z M 0.25 0.015625 L 0.359375 0.078125 L 0.265625 0 C 0.265625 0 0.265625 0.015625 0.25 0.015625 Z M 0.21875 0.03125 L 0.3125 0.09375 C 0.328125 0.09375 0.328125 0.09375 0.34375 0.09375 L 0.234375 0.015625 C 0.234375 0.03125 0.234375 0.03125 0.21875 0.03125 Z M 0.359375 -0.046875 L 0.28125 -0.09375 C 0.28125 -0.078125 0.28125 -0.078125 0.28125 -0.0625 L 0.375 -0.015625 C 0.375 -0.015625 0.359375 -0.03125 0.359375 -0.046875 Z M 0.265625 -0.0625 C 0.265625 -0.09375 0.234375 -0.140625 0.203125 -0.140625 C 0.15625 -0.140625 0.125 -0.09375 0.125 -0.0625 C 0.125 -0.015625 0.15625 0.015625 0.203125 0.015625 C 0.234375 0.015625 0.265625 -0.015625 0.265625 -0.0625 Z M 0.265625 -0.0625 "/></g></g></g></svg>