<svg xmlns="http://www.w3.org/2000/svg" xmlns:xlink="http://www.w3.org/1999/xlink" width="302" zoomAndPan="magnify" viewBox="0 0 226.5 98.249997" height="131" preserveAspectRatio="xMidYMid meet" version="1.0"><defs><g/><clipPath id="0d560f6ca3"><path d="M 0.609375 26.066406 L 46.046875 26.066406 L 46.046875 94.226562 L 0.609375 94.226562 Z M 0.609375 26.066406 " clip-rule="nonzero"/></clipPath><clipPath id="a5b532d538"><path d="M 23.328125 26.066406 L 0.609375 26.066406 L 23.328125 94.226562 L 46.046875 94.226562 Z M 23.328125 26.066406 " clip-rule="nonzero"/></clipPath><clipPath id="982d471850"><path d="M 37.214844 0 L 82.65625 0 L 82.65625 68.15625 L 37.214844 68.15625 Z M 37.214844 0 " clip-rule="nonzero"/></clipPath><clipPath id="80a47b998a"><path d="M 59.933594 0 L 82.65625 0 L 59.933594 68.15625 L 37.214844 68.15625 Z M 59.933594 0 " clip-rule="nonzero"/></clipPath></defs><g clip-path="url(#0d560f6ca3)"><g clip-path="url(#a5b532d538)"><path fill="#22092c" d="M 0.609375 26.066406 L 46.046875 26.066406 L 46.046875 94.226562 L 0.609375 94.226562 Z M 0.609375 26.066406 " fill-opacity="1" fill-rule="nonzero"/></g></g><g clip-path="url(#982d471850)"><g clip-path="url(#80a47b998a)"><path fill="#22092c" d="M 37.214844 0 L 82.65625 0 L 82.65625 68.15625 L 37.214844 68.15625 Z M 37.214844 0 " fill-opacity="1" fill-rule="nonzero"/></g></g><g fill="#22092c" fill-opacity="1"><g transform="translate(70.317695, 75.573771)"><g><path d="M 7.984375 0 L 0.515625 -21.046875 L 7.734375 -21.046875 L 11.96875 -6.96875 L 12.078125 -6.96875 L 16.34375 -21.046875 L 23.25 -21.046875 L 15.8125 0 Z M 7.984375 0 "/></g></g></g><g fill="#22092c" fill-opacity="1"><g transform="translate(94.114285, 75.573771)"><g><path d="M 14.078125 -21.046875 C 15.378906 -21.046875 16.539062 -20.742188 17.5625 -20.140625 C 18.582031 -19.546875 19.375 -18.722656 19.9375 -17.671875 C 20.507812 -16.617188 20.796875 -15.441406 20.796875 -14.140625 L 20.796875 -13.734375 C 20.796875 -12.429688 20.507812 -11.25 19.9375 -10.1875 C 19.375 -9.125 18.582031 -8.289062 17.5625 -7.6875 C 16.539062 -7.09375 15.378906 -6.796875 14.078125 -6.796875 L 9.03125 -6.796875 L 9.03125 0 L 2.265625 0 L 2.265625 -21.046875 Z M 9.03125 -11.71875 L 11.8125 -11.71875 C 12.519531 -11.71875 13.050781 -11.898438 13.40625 -12.265625 C 13.769531 -12.628906 13.953125 -13.128906 13.953125 -13.765625 L 13.953125 -14.015625 C 13.953125 -14.660156 13.769531 -15.160156 13.40625 -15.515625 C 13.050781 -15.878906 12.519531 -16.0625 11.8125 -16.0625 L 9.03125 -16.0625 Z M 9.03125 -11.71875 "/></g></g></g><g fill="#22092c" fill-opacity="1"><g transform="translate(116.198009, 75.573771)"><g><path d="M 12.734375 -21.421875 C 16.359375 -21.421875 19.160156 -20.488281 21.140625 -18.625 C 23.117188 -16.769531 24.109375 -14.070312 24.109375 -10.53125 C 24.109375 -6.976562 23.117188 -4.273438 21.140625 -2.421875 C 19.160156 -0.566406 16.359375 0.359375 12.734375 0.359375 C 9.097656 0.359375 6.296875 -0.5625 4.328125 -2.40625 C 2.359375 -4.25 1.375 -6.957031 1.375 -10.53125 C 1.375 -14.09375 2.359375 -16.796875 4.328125 -18.640625 C 6.296875 -20.492188 9.097656 -21.421875 12.734375 -21.421875 Z M 12.734375 -16.375 C 11.285156 -16.375 10.179688 -15.929688 9.421875 -15.046875 C 8.671875 -14.171875 8.296875 -12.988281 8.296875 -11.5 L 8.296875 -9.546875 C 8.296875 -8.054688 8.671875 -6.875 9.421875 -6 C 10.179688 -5.125 11.285156 -4.6875 12.734375 -4.6875 C 14.179688 -4.6875 15.285156 -5.125 16.046875 -6 C 16.804688 -6.875 17.1875 -8.054688 17.1875 -9.546875 L 17.1875 -11.5 C 17.1875 -12.988281 16.804688 -14.171875 16.046875 -15.046875 C 15.285156 -15.929688 14.179688 -16.375 12.734375 -16.375 Z M 12.734375 -16.375 "/></g></g></g><g fill="#22092c" fill-opacity="1"><g transform="translate(141.676879, 75.573771)"><g><path d="M 18.078125 0 L 15.359375 -12.8125 L 15.234375 -12.8125 L 12.515625 0 L 5.078125 0 L 0.15625 -21.046875 L 7.1875 -21.046875 L 9.609375 -9.109375 L 9.734375 -9.109375 L 12.109375 -21.046875 L 18.78125 -21.046875 L 21.328125 -9.109375 L 21.453125 -9.109375 L 23.703125 -21.046875 L 30.4375 -21.046875 L 25.515625 0 Z M 18.078125 0 "/></g></g></g><g fill="#22092c" fill-opacity="1"><g transform="translate(172.263758, 75.573771)"><g><path d="M 2.265625 -21.046875 L 20.46875 -21.046875 L 20.46875 -16 L 9.03125 -16 L 9.03125 -13.09375 L 18.8125 -13.09375 L 18.8125 -8.265625 L 9.03125 -8.265625 L 9.03125 -5.046875 L 20.6875 -5.046875 L 20.6875 0 L 2.265625 0 Z M 2.265625 -21.046875 "/></g></g></g><g fill="#22092c" fill-opacity="1"><g transform="translate(194.347483, 75.573771)"><g><path d="M 22.234375 -14.59375 C 22.234375 -13.3125 21.882812 -12.148438 21.1875 -11.109375 C 20.5 -10.066406 19.492188 -9.300781 18.171875 -8.8125 L 22.859375 0 L 15.265625 0 L 11.53125 -7.671875 L 9.03125 -7.671875 L 9.03125 0 L 2.265625 0 L 2.265625 -21.046875 L 15.140625 -21.046875 C 16.648438 -21.046875 17.941406 -20.753906 19.015625 -20.171875 C 20.085938 -19.585938 20.890625 -18.800781 21.421875 -17.8125 C 21.960938 -16.832031 22.234375 -15.757812 22.234375 -14.59375 Z M 15.359375 -14.3125 C 15.359375 -14.863281 15.171875 -15.320312 14.796875 -15.6875 C 14.429688 -16.0625 13.988281 -16.25 13.46875 -16.25 L 9.03125 -16.25 L 9.03125 -12.359375 L 13.46875 -12.359375 C 13.988281 -12.359375 14.429688 -12.546875 14.796875 -12.921875 C 15.171875 -13.296875 15.359375 -13.757812 15.359375 -14.3125 Z M 15.359375 -14.3125 "/></g></g></g><g fill="#22092c" fill-opacity="1"><g transform="translate(73.984906, 90.921818)"><g><path d="M 0.859375 0 L 0.859375 -8.140625 L 5.890625 -8.140625 L 5.890625 -7.328125 L 1.84375 -7.328125 L 1.84375 -4.5 L 5.546875 -4.5 L 5.546875 -3.703125 L 1.84375 -3.703125 L 1.84375 -0.796875 L 5.890625 -0.796875 L 5.890625 0 Z M 0.859375 0 "/></g></g></g><g fill="#22092c" fill-opacity="1"><g transform="translate(87.872026, 90.921818)"><g><path d="M 0.859375 0 L 0.859375 -8.140625 L 1.84375 -8.140625 L 1.84375 -0.78125 L 5.625 -0.78125 L 5.625 0 Z M 0.859375 0 "/></g></g></g><g fill="#22092c" fill-opacity="1"><g transform="translate(101.306042, 90.921818)"><g><path d="M 0.859375 0 L 0.859375 -8.140625 L 5.890625 -8.140625 L 5.890625 -7.328125 L 1.84375 -7.328125 L 1.84375 -4.5 L 5.546875 -4.5 L 5.546875 -3.703125 L 1.84375 -3.703125 L 1.84375 -0.796875 L 5.890625 -0.796875 L 5.890625 0 Z M 0.859375 0 "/></g></g></g><g fill="#22092c" fill-opacity="1"><g transform="translate(115.193161, 90.921818)"><g><path d="M 4.421875 0.140625 C 3.628906 0.140625 2.941406 -0.0351562 2.359375 -0.390625 C 1.785156 -0.742188 1.335938 -1.234375 1.015625 -1.859375 C 0.703125 -2.492188 0.546875 -3.226562 0.546875 -4.0625 C 0.546875 -4.894531 0.703125 -5.625 1.015625 -6.25 C 1.335938 -6.882812 1.785156 -7.378906 2.359375 -7.734375 C 2.941406 -8.097656 3.628906 -8.28125 4.421875 -8.28125 C 5.359375 -8.28125 6.117188 -8.054688 6.703125 -7.609375 C 7.285156 -7.160156 7.660156 -6.539062 7.828125 -5.75 L 6.75 -5.75 C 6.625 -6.25 6.367188 -6.648438 5.984375 -6.953125 C 5.597656 -7.265625 5.078125 -7.421875 4.421875 -7.421875 C 3.847656 -7.421875 3.34375 -7.285156 2.90625 -7.015625 C 2.46875 -6.742188 2.128906 -6.359375 1.890625 -5.859375 C 1.660156 -5.359375 1.546875 -4.757812 1.546875 -4.0625 C 1.546875 -3.363281 1.660156 -2.765625 1.890625 -2.265625 C 2.128906 -1.765625 2.46875 -1.378906 2.90625 -1.109375 C 3.34375 -0.847656 3.847656 -0.71875 4.421875 -0.71875 C 5.078125 -0.71875 5.597656 -0.863281 5.984375 -1.15625 C 6.367188 -1.457031 6.625 -1.859375 6.75 -2.359375 L 7.828125 -2.359375 C 7.660156 -1.578125 7.285156 -0.960938 6.703125 -0.515625 C 6.117188 -0.078125 5.359375 0.140625 4.421875 0.140625 Z M 4.421875 0.140625 "/></g></g></g><g fill="#22092c" fill-opacity="1"><g transform="translate(130.892739, 90.921818)"><g><path d="M 2.765625 0 L 2.765625 -7.328125 L 0.34375 -7.328125 L 0.34375 -8.140625 L 6.171875 -8.140625 L 6.171875 -7.328125 L 3.75 -7.328125 L 3.75 0 Z M 2.765625 0 "/></g></g></g><g fill="#22092c" fill-opacity="1"><g transform="translate(144.733392, 90.921818)"><g><path d="M 0.859375 0 L 0.859375 -8.140625 L 3.484375 -8.140625 C 4.117188 -8.140625 4.640625 -8.035156 5.046875 -7.828125 C 5.453125 -7.617188 5.75 -7.332031 5.9375 -6.96875 C 6.132812 -6.601562 6.234375 -6.195312 6.234375 -5.75 C 6.234375 -5.238281 6.09375 -4.773438 5.8125 -4.359375 C 5.539062 -3.953125 5.113281 -3.664062 4.53125 -3.5 L 6.3125 0 L 5.15625 0 L 3.515625 -3.359375 L 1.84375 -3.359375 L 1.84375 0 Z M 1.84375 -4.125 L 3.421875 -4.125 C 4.046875 -4.125 4.5 -4.273438 4.78125 -4.578125 C 5.070312 -4.878906 5.21875 -5.269531 5.21875 -5.75 C 5.21875 -6.226562 5.078125 -6.609375 4.796875 -6.890625 C 4.515625 -7.171875 4.050781 -7.3125 3.40625 -7.3125 L 1.84375 -7.3125 Z M 1.84375 -4.125 "/></g></g></g><g fill="#22092c" fill-opacity="1"><g transform="translate(158.957437, 90.921818)"><g><path d="M 0.859375 0 L 0.859375 -8.140625 L 1.84375 -8.140625 L 1.84375 0 Z M 0.859375 0 "/></g></g></g><g fill="#22092c" fill-opacity="1"><g transform="translate(168.987299, 90.921818)"><g><path d="M 4.421875 0.140625 C 3.628906 0.140625 2.941406 -0.0351562 2.359375 -0.390625 C 1.785156 -0.742188 1.335938 -1.234375 1.015625 -1.859375 C 0.703125 -2.492188 0.546875 -3.226562 0.546875 -4.0625 C 0.546875 -4.894531 0.703125 -5.625 1.015625 -6.25 C 1.335938 -6.882812 1.785156 -7.378906 2.359375 -7.734375 C 2.941406 -8.097656 3.628906 -8.28125 4.421875 -8.28125 C 5.359375 -8.28125 6.117188 -8.054688 6.703125 -7.609375 C 7.285156 -7.160156 7.660156 -6.539062 7.828125 -5.75 L 6.75 -5.75 C 6.625 -6.25 6.367188 -6.648438 5.984375 -6.953125 C 5.597656 -7.265625 5.078125 -7.421875 4.421875 -7.421875 C 3.847656 -7.421875 3.34375 -7.285156 2.90625 -7.015625 C 2.46875 -6.742188 2.128906 -6.359375 1.890625 -5.859375 C 1.660156 -5.359375 1.546875 -4.757812 1.546875 -4.0625 C 1.546875 -3.363281 1.660156 -2.765625 1.890625 -2.265625 C 2.128906 -1.765625 2.46875 -1.378906 2.90625 -1.109375 C 3.34375 -0.847656 3.847656 -0.71875 4.421875 -0.71875 C 5.078125 -0.71875 5.597656 -0.863281 5.984375 -1.15625 C 6.367188 -1.457031 6.625 -1.859375 6.75 -2.359375 L 7.828125 -2.359375 C 7.660156 -1.578125 7.285156 -0.960938 6.703125 -0.515625 C 6.117188 -0.078125 5.359375 0.140625 4.421875 0.140625 Z M 4.421875 0.140625 "/></g></g></g><g fill="#22092c" fill-opacity="1"><g transform="translate(184.686873, 90.921818)"><g><path d="M 0.34375 0 L 3.34375 -8.140625 L 4.375 -8.140625 L 7.375 0 L 6.328125 0 L 5.59375 -2.09375 L 2.125 -2.09375 L 1.375 0 Z M 2.421875 -2.890625 L 5.296875 -2.890625 L 3.859375 -6.90625 Z M 2.421875 -2.890625 "/></g></g></g><g fill="#22092c" fill-opacity="1"><g transform="translate(199.735817, 90.921818)"><g><path d="M 0.859375 0 L 0.859375 -8.140625 L 1.84375 -8.140625 L 1.84375 -0.78125 L 5.625 -0.78125 L 5.625 0 Z M 0.859375 0 "/></g></g></g></svg>